<?xml version="1.0" encoding="utf-8"?>
<!-- Generator: Adobe Illustrator 21.0.0, SVG Export Plug-In . SVG Version: 6.00 Build 0)  -->
<svg version="1.1" id="Layer_1" xmlns="http://www.w3.org/2000/svg" xmlns:xlink="http://www.w3.org/1999/xlink" x="0px" y="0px"
	 viewBox="0 0 319 245.4" style="enable-background:new 0 0 319 245.4;" xml:space="preserve">
<style type="text/css">
	.st0{fill:#7F8F99;}
	.st1{fill:none;}
</style>
<g id="Guides">
</g>
<g>
	<g>
		<path class="st0" d="M4.4,230.6c0-39.4,9.8-73.8,32-96C85.7,82.9,179.2,87.8,253,90.3h4.9c4.9,0,7.4,0,12.3,0l-59.1-66.5
			c-4.9-4.9-4.9-14.8,0-19.7c4.9-4.9,14.8-4.9,19.7,0l81.2,91.1c2.5,2.5,4.9,4.9,4.9,9.8c0,4.9-2.5,7.4-4.9,9.8l-83.7,88.6
			c-4.9,4.9-14.8,4.9-19.7,0c-4.9-4.9-4.9-14.8,0-19.7l59.1-64c-4.9,0-12.3,0-17.2,0h-2.5c-64-2.5-152.6-7.4-192,36.9
			c-17.2,17.2-24.6,41.8-24.6,73.8c0,7.4-7.4,14.8-14.8,14.8S2,238,4.4,230.6z"/>
	</g>
	<g>
		<rect x="-0.5" y="-0.4" class="st1" width="320" height="246.2"/>
	</g>
</g>
<g id="Colors">
</g>
<g id="Layout">
</g>
<g id="midot">
</g>
<g id="Fonts">
</g>
</svg>
