<svg xmlns="http://www.w3.org/2000/svg" viewBox="0 0 35 28"><defs><style>.cls-1{fill:#fff;}.cls-2{fill:#8898a3;}.cls-3{fill:#6b797f;}.cls-4{fill:none;}</style></defs><title>_</title><g id="Layout"><rect class="cls-1" width="35" height="28" rx="5.48" ry="5.48"/><path class="cls-2" d="M9.92,20.74a1.26,1.26,0,0,1-.37-.07l5.68-6.49L17.35,16a.65.65,0,0,0,.85,0l2.13-1.82L26,20.66a1.25,1.25,0,0,1-.37.07ZM8.66,19.69a1.26,1.26,0,0,1-.05-.26V9a1.27,1.27,0,0,1,.08-.38l5.54,4.75Zm17-12a1.2,1.2,0,0,1,.25,0l-8.1,6.95L9.67,7.69a1.22,1.22,0,0,1,.25,0Zm-4.31,5.68,5.55-4.75a1.27,1.27,0,0,1,.08.38V19.43a1.26,1.26,0,0,1-.05.26Zm4.31-7H9.92A2.62,2.62,0,0,0,7.3,9V19.43A2.62,2.62,0,0,0,9.92,22H25.64a2.62,2.62,0,0,0,2.62-2.62V9a2.62,2.62,0,0,0-2.62-2.62"/><path class="cls-3" d="M5.41,23.3H5.32a.87.87,0,0,1-.78-1.12A1.1,1.1,0,0,1,5,21.57L29,4.9a1,1,0,0,1,1.38.17h0A1,1,0,0,1,30,6.43L6,23.1A1.1,1.1,0,0,1,5.41,23.3Z"/><rect class="cls-4" x="2.5" y="2.57" width="30" height="22.86"/></g></svg>