<?xml version="1.0" encoding="utf-8"?>
<!-- Generator: Adobe Illustrator 21.0.0, SVG Export Plug-In . SVG Version: 6.00 Build 0)  -->
<svg version="1.1" xmlns="http://www.w3.org/2000/svg" xmlns:xlink="http://www.w3.org/1999/xlink" x="0px" y="0px"
	 viewBox="0 0 35 28" style="enable-background:new 0 0 35 28;" xml:space="preserve">
<style type="text/css">
	.st0{fill:#098387;}
	.st1{clip-path:url(#SVGID_2_);fill:#FFFFFF;}
	.st2{clip-path:url(#SVGID_4_);fill:#FFFFFF;}
	.st3{clip-path:url(#SVGID_6_);fill:#098488;}
	.st4{clip-path:url(#SVGID_6_);fill:none;stroke:#098488;stroke-width:1.5723;stroke-miterlimit:10;}
	.st5{clip-path:url(#SVGID_6_);fill:#078488;}
	.st6{fill:none;stroke:#9DB0BF;stroke-width:0.7188;}
	.st7{fill:none;}
	.st8{fill:#F1DE63;}
	.st9{fill:#ECBA4C;}
	.st10{fill:#02ABB4;}
	.st11{fill:#23BBB8;}
	.st12{fill:#23BBB7;}
	.st13{fill:#00ABB4;}
	.st14{fill:#47BEAE;}
	.st15{fill:#F2F3F3;}
	.st16{fill:#FFFFFF;}
	.st17{fill:#9DAFBF;}
	.st18{fill:#9DB0BF;}
	.st19{fill:#9CAFBE;}
	.st20{fill:#F26F60;}
	.st21{fill:#D86A5A;}
	.st22{fill:#BF4E46;}
	.st23{fill:#F48772;}
	.st24{fill:#EFC95F;}
	.st25{fill:#EFC85F;}
	.st26{fill:#EFDC64;}
	.st27{fill:#9DB0C1;}
	.st28{fill:#9DAFC0;}
	.st29{fill:#DBDFE4;}
	.st30{clip-path:url(#SVGID_8_);}
	.st31{fill:#7F8F99;}
	.st32{fill:#016A6E;}
	.st33{fill:#F1B752;}
	.st34{fill:#F0B751;}
	.st35{fill:#018388;}
	.st36{fill:#0F4D6D;}
	.st37{fill:#6A777F;}
	.st38{fill:#8898A3;}
	.st39{fill:none;stroke:#8898A3;stroke-width:0.6176;stroke-miterlimit:10;}
	.st40{fill:#6B797F;}
	.st41{fill:none;stroke:#9DB0BF;stroke-width:0.6176;stroke-miterlimit:10;}
	.st42{fill:#025454;stroke:#025454;stroke-width:1.2353;stroke-miterlimit:10;}
	.st43{fill:#025454;}
	.st44{fill:#018388;stroke:#018388;stroke-width:1.2353;stroke-miterlimit:10;}
	.st45{fill:#0A8387;}
	.st46{fill:#D69E4C;}
	.st47{fill:#F9F9F9;}
	.st48{fill:#F8BD2B;}
	.st49{fill:#3C3C3C;}
	.st50{fill:#F0F0F0;}
	.st51{fill:#737373;}
	.st52{fill:#FFFFFF;stroke:#231F20;stroke-miterlimit:10;}
	.st53{fill:#C00000;}
	.st54{fill:#008000;}
	.st55{fill:#0070C0;}
	.st56{fill:#800080;}
	.st57{fill:#D60093;}
	.st58{fill:none;stroke:#CCCCCC;stroke-width:1.6597;stroke-miterlimit:10;}
	.st59{fill:#999999;}
	.st60{fill:#CCCCCC;}
	.st61{fill:#E2E2E2;}
	.st62{fill:#BCBCBC;}
	.st63{fill:#FFFFFF;stroke:#E2E2E2;stroke-miterlimit:10;}
	.st64{clip-path:url(#SVGID_10_);fill:#7C95A4;}
	.st65{clip-path:url(#SVGID_10_);fill:none;stroke:#7F8F99;stroke-miterlimit:10;}
	.st66{clip-path:url(#SVGID_12_);fill:#7C95A4;}
	.st67{clip-path:url(#SVGID_12_);fill:none;stroke:#FFFFFF;stroke-miterlimit:10;}
	.st68{fill:none;stroke:#CCCCCC;stroke-width:2.2062;stroke-miterlimit:10;}
	.st69{fill:none;stroke:#CCCCCC;stroke-width:2.2081;stroke-miterlimit:10;}
	.st70{fill:#018388;stroke:#018388;stroke-width:2;stroke-miterlimit:10;}
	.st71{fill:none;stroke:#CCCCCC;stroke-width:2.6661;stroke-miterlimit:10;}
	.st72{fill:none;stroke:#CCCCCC;stroke-width:2.6684;stroke-miterlimit:10;}
	.st73{fill:#535E63;}
	.st74{fill:#025454;stroke:#025454;stroke-width:2;stroke-miterlimit:10;}
	.st75{fill:#EDEDED;}
	.st76{fill:none;stroke:#9DB0BF;stroke-width:0.8824;stroke-miterlimit:10;}
	.st77{fill:#0B8287;}
	.st78{clip-path:url(#SVGID_14_);}
	.st79{fill:#DDDDDD;}
	.st80{fill:none;stroke:#F3F3F3;stroke-width:1.2719;}
	.st81{clip-path:url(#SVGID_16_);fill:#7C95A4;}
	.st82{clip-path:url(#SVGID_16_);fill:none;stroke:#7D93A1;stroke-width:0.636;stroke-miterlimit:10;}
	.st83{fill:none;stroke:#231F20;stroke-width:0.636;}
	.st84{fill:none;stroke:#9CAFBE;stroke-width:0.636;}
	.st85{fill:#7C95A4;}
	.st86{fill:none;stroke:#7C95A4;stroke-width:0.3816;stroke-miterlimit:10;}
	.st87{fill:none;stroke:#9DB0BF;stroke-width:0.636;stroke-miterlimit:10;}
	.st88{clip-path:url(#SVGID_18_);fill:#7C95A4;}
	.st89{clip-path:url(#SVGID_18_);fill:none;stroke:#7D93A1;stroke-width:0.636;stroke-miterlimit:10;}
	.st90{clip-path:url(#SVGID_20_);fill:#7C95A4;}
	.st91{clip-path:url(#SVGID_20_);fill:none;stroke:#7C95A4;stroke-width:0.636;stroke-miterlimit:10;}
	.st92{fill:none;stroke:#016A6E;stroke-width:1.5505;stroke-miterlimit:10;}
	.st93{fill:none;stroke:#7C94A4;stroke-width:1.5;stroke-linecap:round;stroke-linejoin:round;stroke-dasharray:0,3;}
	.st94{fill:none;stroke:#7C94A4;stroke-width:1.2719;stroke-linecap:round;stroke-linejoin:round;}
	.st95{fill:#DCDDE8;}
	.st96{fill:#F2F3F4;}
	.st97{fill:#DCDFE6;}
	.st98{fill:#8494A0;stroke:#8494A0;stroke-width:0.6163;stroke-miterlimit:10;}
	.st99{fill:none;stroke:#DBE2E1;stroke-width:1.2723;stroke-miterlimit:3;}
	.st100{clip-path:url(#SVGID_22_);fill:#DAE1E0;}
	.st101{clip-path:url(#SVGID_24_);fill:#DAE1E0;}
	.st102{fill:#231F20;}
	.st103{clip-path:url(#SVGID_26_);fill:#DAE1E0;}
	.st104{clip-path:url(#SVGID_28_);fill:#DAE1E0;}
	.st105{opacity:0.8;fill:#FFFFFF;}
	.st106{fill:none;stroke:#FFFFFF;stroke-width:2.9078;stroke-linecap:round;stroke-miterlimit:10;}
	.st107{clip-path:url(#SVGID_30_);fill:#7C95A4;}
	.st108{clip-path:url(#SVGID_30_);fill:none;stroke:#3C3C3C;stroke-width:0.636;stroke-miterlimit:10;}
	.st109{clip-path:url(#SVGID_32_);fill:#7C95A4;}
	.st110{clip-path:url(#SVGID_32_);fill:none;stroke:#3C3C3C;stroke-width:0.636;stroke-miterlimit:10;}
	.st111{clip-path:url(#SVGID_34_);}
	.st112{clip-path:url(#SVGID_36_);fill:#7C95A4;}
	.st113{clip-path:url(#SVGID_36_);fill:none;stroke:#7C95A4;stroke-width:0.636;stroke-miterlimit:10;}
	.st114{clip-path:url(#SVGID_38_);fill:#7C95A4;}
	.st115{clip-path:url(#SVGID_38_);fill:none;stroke:#3C3C3C;stroke-width:0.636;stroke-miterlimit:10;}
	.st116{fill:#F2F3F3;stroke:#DBDFE4;stroke-width:0.9998;}
	.st117{fill:#018388;stroke:#018388;stroke-width:1.7647;stroke-miterlimit:10;}
	.st118{fill:none;stroke:#DBDFE4;stroke-width:1.5;stroke-linecap:round;stroke-linejoin:round;stroke-dasharray:0,3;}
	.st119{fill:#ED1C24;}
	.st120{fill:none;stroke:#8898A3;stroke-width:0.8824;stroke-miterlimit:10;}
</style>
<g id="Guides">
</g>
<g id="Icons">
</g>
<g id="Colors">
</g>
<g id="Layout">
	<g>
		<g>
			<path class="st16" d="M29.5,28h-24c-3,0-5.5-2.5-5.5-5.5v-17C0,2.5,2.5,0,5.5,0h24c3,0,5.5,2.5,5.5,5.5v17
				C35,25.5,32.5,28,29.5,28z"/>
		</g>
		<path class="st42" d="M9.5,21.1c-0.1,0-0.3,0-0.4-0.1l6-6.8l2.2,1.9c0.1,0.1,0.3,0.2,0.4,0.2c0.2,0,0.3-0.1,0.4-0.2l2.2-1.9l6,6.8
			c-0.1,0-0.3,0.1-0.4,0.1H9.5z M8.2,20c0-0.1-0.1-0.2-0.1-0.3v-11c0-0.1,0-0.3,0.1-0.4l5.8,5L8.2,20z M26,7.3c0.1,0,0.2,0,0.3,0.1
			l-8.5,7.3L9.3,7.4c0.1,0,0.2-0.1,0.3-0.1H26z M21.5,13.3l5.8-5c0,0.1,0.1,0.3,0.1,0.4v11c0,0.1,0,0.2-0.1,0.3L21.5,13.3z M26,5.9
			H9.5C8,5.9,6.8,7.2,6.8,8.7v11c0,1.5,1.2,2.7,2.7,2.7H26c1.5,0,2.7-1.2,2.7-2.7v-11C28.8,7.2,27.5,5.9,26,5.9"/>
		<path class="st43" d="M26,21.7H9.7c-1,0-1.8-0.8-1.8-1.8v-11c0-1,0.8-1.8,1.8-1.8H26c1,0,1.8,0.8,1.8,1.8v11
			C27.8,20.9,27,21.7,26,21.7z"/>
		<path class="st16" d="M9.9,20.7c-0.1,0-0.3,0-0.4-0.1l5.7-6.5l2.1,1.8c0.1,0.1,0.3,0.2,0.4,0.2c0.2,0,0.3-0.1,0.4-0.2l2.1-1.8
			l5.7,6.5c-0.1,0-0.2,0.1-0.4,0.1H9.9z M8.7,19.7c0-0.1-0.1-0.2-0.1-0.3V9c0-0.1,0-0.3,0.1-0.4l5.5,4.8L8.7,19.7z M25.6,7.6
			c0.1,0,0.2,0,0.2,0l-8.1,6.9L9.7,7.7c0.1,0,0.2,0,0.2,0H25.6z M21.3,13.3l5.5-4.8c0,0.1,0.1,0.2,0.1,0.4v10.5c0,0.1,0,0.2-0.1,0.3
			L21.3,13.3z M25.6,6.3H9.9C8.5,6.3,7.3,7.5,7.3,9v10.5c0,1.4,1.2,2.6,2.6,2.6h15.7c1.4,0,2.6-1.2,2.6-2.6V9
			C28.3,7.5,27.1,6.3,25.6,6.3"/>
		<g>
			<rect x="2.5" y="2.6" class="st7" width="30" height="22.9"/>
		</g>
	</g>
</g>
<g id="midot">
</g>
<g id="Fonts">
</g>
</svg>
