<svg xmlns="http://www.w3.org/2000/svg" viewBox="0 0 21 16"><defs><style>.cls-1{fill:#9db0bf;}.cls-2{fill:#7f8f99;}.cls-3{fill:none;}</style></defs><title>_</title><g id="Icons"><path class="cls-1" d="M5.19,12.72a.88.88,0,0,1-.26-.05l4-4.54L10.4,9.4a.46.46,0,0,0,.6,0l1.49-1.28,4,4.54a.87.87,0,0,1-.26.05ZM4.31,12a.89.89,0,0,1,0-.18V4.47a.89.89,0,0,1,.05-.27L8.21,7.52ZM16.2,3.55a.84.84,0,0,1,.17,0L10.69,8.45,5,3.58a.85.85,0,0,1,.17,0Zm-3,4L17.06,4.2a.89.89,0,0,1,.05.27V11.8a.89.89,0,0,1,0,.18Zm3-4.89h-11A1.83,1.83,0,0,0,3.36,4.47V11.8a1.83,1.83,0,0,0,1.83,1.83h11A1.83,1.83,0,0,0,18,11.8V4.47A1.83,1.83,0,0,0,16.2,2.63"/><path class="cls-2" d="M2.13,14.44H2.06a.61.61,0,0,1-.54-.77.76.76,0,0,1,.3-.42L18.43,1.7a.69.69,0,0,1,1,.12h0a.69.69,0,0,1-.22.94L2.57,14.3A.76.76,0,0,1,2.13,14.44Z"/><rect class="cls-3" width="21" height="16"/></g></svg>