<?xml version="1.0" encoding="utf-8"?>
<!-- Generator: Adobe Illustrator 21.0.0, SVG Export Plug-In . SVG Version: 6.00 Build 0)  -->
<svg version="1.1" xmlns="http://www.w3.org/2000/svg" xmlns:xlink="http://www.w3.org/1999/xlink" x="0px" y="0px"
	 viewBox="0 0 35 35" style="enable-background:new 0 0 35 35;" xml:space="preserve">
<style type="text/css">
	.st0{fill:#098387;}
	.st1{clip-path:url(#SVGID_2_);fill:#FFFFFF;}
	.st2{fill:#FFFFFF;}
	.st3{clip-path:url(#SVGID_4_);fill:#FFFFFF;}
	.st4{clip-path:url(#SVGID_6_);fill:#098488;}
	.st5{clip-path:url(#SVGID_6_);fill:none;stroke:#098488;stroke-width:1.5723;stroke-miterlimit:10;}
	.st6{clip-path:url(#SVGID_6_);fill:#078488;}
	.st7{fill:none;stroke:#9DB0BF;stroke-width:0.7188;}
	.st8{fill:none;}
	.st9{fill:#F1DE63;}
	.st10{fill:#ECBA4C;}
	.st11{fill:#02ABB4;}
	.st12{fill:#23BBB8;}
	.st13{fill:#23BBB7;}
	.st14{fill:#00ABB4;}
	.st15{fill:#47BEAE;}
	.st16{fill:#F2F3F3;}
	.st17{fill:#9DAFBF;}
	.st18{fill:#9DB0BF;}
	.st19{fill:#9CAFBE;}
	.st20{fill:#F26F60;}
	.st21{fill:#D86A5A;}
	.st22{fill:#BF4E46;}
	.st23{fill:#F48772;}
	.st24{fill:#EFC95F;}
	.st25{fill:#EFC85F;}
	.st26{fill:#EFDC64;}
	.st27{fill:#9DB0C1;}
	.st28{fill:#9DAFC0;}
	.st29{fill:#DBDFE4;}
	.st30{clip-path:url(#SVGID_8_);}
	.st31{fill:#7F8F99;}
	.st32{fill:#016A6E;}
	.st33{fill:#F1B752;}
	.st34{fill:#F0B751;}
	.st35{fill:#018388;}
	.st36{fill:#0F4D6D;}
	.st37{fill:#6A777F;}
	.st38{fill:#8898A3;}
	.st39{fill:none;stroke:#8898A3;stroke-width:0.6176;stroke-miterlimit:10;}
	.st40{fill:#6B797F;}
	.st41{fill:none;stroke:#9DB0BF;stroke-width:0.6176;stroke-miterlimit:10;}
	.st42{fill:#025454;stroke:#025454;stroke-width:1.2353;stroke-miterlimit:10;}
	.st43{fill:#025454;}
	.st44{fill:#018388;stroke:#018388;stroke-width:1.2353;stroke-miterlimit:10;}
	.st45{fill:#0A8387;}
	.st46{fill:#D69E4C;}
	.st47{fill:#F9F9F9;}
	.st48{fill:#F8BD2B;}
	.st49{fill:#3C3C3C;}
	.st50{fill:#F0F0F0;}
	.st51{fill:#737373;}
	.st52{fill:#FFFFFF;stroke:#231F20;stroke-miterlimit:10;}
	.st53{fill:#C00000;}
	.st54{fill:#008000;}
	.st55{fill:#0070C0;}
	.st56{fill:#800080;}
	.st57{fill:#D60093;}
	.st58{fill:none;stroke:#CCCCCC;stroke-width:1.6597;stroke-miterlimit:10;}
	.st59{fill:#999999;}
	.st60{fill:#CCCCCC;}
	.st61{fill:#E2E2E2;}
	.st62{fill:#BCBCBC;}
	.st63{fill:#FFFFFF;stroke:#E2E2E2;stroke-miterlimit:10;}
	.st64{clip-path:url(#SVGID_10_);fill:#7C95A4;}
	.st65{clip-path:url(#SVGID_10_);fill:none;stroke:#7F8F99;stroke-miterlimit:10;}
	.st66{clip-path:url(#SVGID_12_);fill:#7C95A4;}
	.st67{clip-path:url(#SVGID_12_);fill:none;stroke:#FFFFFF;stroke-miterlimit:10;}
	.st68{fill:none;stroke:#CCCCCC;stroke-width:2.2062;stroke-miterlimit:10;}
	.st69{fill:none;stroke:#CCCCCC;stroke-width:2.2081;stroke-miterlimit:10;}
	.st70{fill:#018388;stroke:#018388;stroke-width:2;stroke-miterlimit:10;}
	.st71{fill:none;stroke:#CCCCCC;stroke-width:2.6661;stroke-miterlimit:10;}
	.st72{fill:none;stroke:#CCCCCC;stroke-width:2.6684;stroke-miterlimit:10;}
	.st73{fill:#535E63;}
	.st74{fill:#025454;stroke:#025454;stroke-width:2;stroke-miterlimit:10;}
	.st75{fill:#EDEDED;}
	.st76{fill:#0B8287;}
	.st77{clip-path:url(#SVGID_14_);}
	.st78{fill:#DDDDDD;}
	.st79{fill:none;stroke:#F3F3F3;stroke-width:1.2719;}
	.st80{clip-path:url(#SVGID_16_);fill:#7C95A4;}
	.st81{clip-path:url(#SVGID_16_);fill:none;stroke:#7D93A1;stroke-width:0.636;stroke-miterlimit:10;}
	.st82{fill:none;stroke:#231F20;stroke-width:0.636;}
	.st83{fill:none;stroke:#9CAFBE;stroke-width:0.636;}
	.st84{fill:#7C95A4;}
	.st85{fill:none;stroke:#7C95A4;stroke-width:0.3816;stroke-miterlimit:10;}
	.st86{fill:none;stroke:#9DB0BF;stroke-width:0.636;stroke-miterlimit:10;}
	.st87{clip-path:url(#SVGID_18_);fill:#7C95A4;}
	.st88{clip-path:url(#SVGID_18_);fill:none;stroke:#7D93A1;stroke-width:0.636;stroke-miterlimit:10;}
	.st89{clip-path:url(#SVGID_20_);fill:#7C95A4;}
	.st90{clip-path:url(#SVGID_20_);fill:none;stroke:#7C95A4;stroke-width:0.636;stroke-miterlimit:10;}
	.st91{fill:none;stroke:#016A6E;stroke-width:1.5505;stroke-miterlimit:10;}
	.st92{fill:none;stroke:#7C94A4;stroke-width:1.5;stroke-linecap:round;stroke-linejoin:round;stroke-dasharray:0,3;}
	.st93{fill:none;stroke:#7C94A4;stroke-width:1.2719;stroke-linecap:round;stroke-linejoin:round;}
	.st94{fill:#DCDDE8;}
	.st95{fill:#F2F3F4;}
	.st96{fill:#DCDFE6;}
	.st97{fill:#8494A0;stroke:#8494A0;stroke-width:0.6163;stroke-miterlimit:10;}
	.st98{fill:none;stroke:#DBE2E1;stroke-width:1.2723;stroke-miterlimit:3;}
	.st99{clip-path:url(#SVGID_22_);fill:#DAE1E0;}
	.st100{clip-path:url(#SVGID_24_);fill:#DAE1E0;}
	.st101{fill:#231F20;}
	.st102{clip-path:url(#SVGID_26_);fill:#DAE1E0;}
	.st103{clip-path:url(#SVGID_28_);fill:#DAE1E0;}
	.st104{opacity:0.8;fill:#FFFFFF;}
	.st105{fill:none;stroke:#FFFFFF;stroke-width:2.9078;stroke-linecap:round;stroke-miterlimit:10;}
	.st106{fill:#ED1C24;}
</style>
<g id="Guides">
</g>
<g id="Icons">
	<g>
		<rect class="st8" width="35" height="35"/>
	</g>
	<path class="st11" d="M27,28.5c0,0,0.5,0,0.5-0.5l-0.2-3.5c0,0,0-0.5-0.4-0.1l-3.6,3.8c0,0-0.4,0.4,0.2,0.4L27,28.5z"/>
	<path class="st11" d="M23.4,28.8c-0.4,0-0.5-0.2-0.6-0.3c-0.1-0.3,0.1-0.5,0.2-0.6l3.6-3.8c0.3-0.3,0.5-0.3,0.6-0.2
		c0.3,0.1,0.3,0.5,0.3,0.6l0.2,3.5c0,0.3-0.1,0.5-0.2,0.6c-0.2,0.2-0.6,0.3-0.6,0.3L23.4,28.8C23.4,28.8,23.4,28.8,23.4,28.8z
		 M27,24.7l-3.3,3.5l3.3,0c0,0,0.1,0,0.2-0.1c0,0,0-0.1,0-0.1L27,24.7z"/>
	<path class="st12" d="M13,21.5c-0.5,0-0.9-0.5-0.9-1c0-0.6,0.4-1,0.9-1h1.9c0.2,0,0.3-0.2,0.3-0.3v-7.9h8.7l-3.1,4.9
		c-0.1,0.1-0.1,0.3,0,0.4l3.1,4.9H13z M8.4,9.5h6.2v9.3H8.4V9.5z M21.5,16.4l3.3-5.3c0.1-0.1,0.1-0.2,0-0.4
		c-0.1-0.1-0.2-0.2-0.3-0.2h-9.3V9.2c0-0.2-0.1-0.3-0.3-0.3H8.4V8.2C8.4,8,8.2,7.8,8,7.8C7.9,7.8,7.7,8,7.7,8.2v19.9
		c0,0.2,0.1,0.3,0.3,0.3c0.2,0,0.3-0.2,0.3-0.3v-8.6h3.4c-0.2,0.3-0.3,0.6-0.3,1c0,0.9,0.7,1.7,1.6,1.7h11.5c0.1,0,0.2-0.1,0.3-0.2
		c0.1-0.1,0-0.2,0-0.4L21.5,16.4z"/>
	<path class="st12" d="M8,28.7c-0.3,0-0.6-0.3-0.6-0.7V8.2c0-0.4,0.3-0.7,0.6-0.7c0.3,0,0.6,0.3,0.6,0.7v0.4h6.2
		c0.3,0,0.6,0.3,0.6,0.7v1.1h9c0.2,0,0.5,0.1,0.6,0.4c0.1,0.2,0.1,0.5,0,0.7l-3.2,5.1l3.2,5.1c0.1,0.2,0.1,0.4,0,0.7
		c-0.1,0.2-0.3,0.4-0.6,0.4H13c-1,0-1.9-0.9-1.9-2c0-0.2,0-0.5,0.1-0.7H8.7v8.3C8.7,28.4,8.4,28.7,8,28.7z M11.9,21
		c0.2,0.5,0.6,0.9,1.2,0.9h11.5l0-0.1H13C12.5,21.9,12.1,21.5,11.9,21z M13,19.8c-0.3,0-0.6,0.3-0.6,0.7c0,0.4,0.3,0.7,0.6,0.7h10.4
		l-2.8-4.5c-0.1-0.2-0.1-0.5,0-0.7l2.8-4.5h-7.9v7.6c0,0.4-0.3,0.7-0.6,0.7H13z M8,19.2h4.3L12,19.7c0,0.1-0.1,0.1-0.1,0.2
		c0.2-0.4,0.6-0.7,1.1-0.7h1.9v-0.1L8,19.2L8,19.2z M8.7,18.5h5.6V9.9H8.7V18.5z M14.9,10.9h9.6l-3.4,5.4l0,0l3.4-5.4L14.9,10.9
		L14.9,10.9z M8,9.2l6.8,0L8,9.2L8,9.2z"/>
	<path class="st13" d="M14.8,10.9v8.2h-1.9c-0.7,0-1.3,0.6-1.3,1.4c0,0.7,0.6,1.4,1.3,1.4h11.8l-3.5-5.4l3.5-5.4H14.8z"/>
	<path class="st14" d="M15.1,21.7L15.1,21.7v-1.3v-1.3v-0.5c0,0,0-0.1-0.1-0.1h-2.8v1.9c0,0.7,0.5,1.3,1.2,1.3H15.1z"/>
	<path class="st15" d="M8.3,9.3c0,0,0-0.1,0.1-0.1H15c0,0,0.1,0,0.1,0.1v9.1c0,0,0,0.1-0.1,0.1H8.5c0,0-0.1,0-0.1-0.1V9.3z"/>
</g>
<g id="Colors">
</g>
<g id="Layout">
</g>
<g id="midot">
</g>
<g id="Fonts">
</g>
</svg>
