<svg xmlns="http://www.w3.org/2000/svg" viewBox="0 0 21 16"><defs><style>.cls-1{fill:#9db0bf;}.cls-2,.cls-4{fill:none;}.cls-2{stroke:#9db0bf;stroke-miterlimit:10;stroke-width:0.62px;}.cls-3{fill:#7f8f99;}</style></defs><title>_</title><g id="Icons"><path class="cls-1" d="M4.77,7.58v.74L4,8l.73-.37m.62-1L2.68,8,5.39,9.33V6.58Z"/><path class="cls-1" d="M16.63,7.58l.73.37-.73.37V7.58m-.62-1V9.33L18.72,8,16,6.58Z"/><path class="cls-1" d="M5,4l.81.11-.42.61L5,4M3.88,3.28,5.33,5.94,6.89,3.68l-3-.4Z"/><path class="cls-1" d="M16.39,4,16,4.77l-.42-.61L16.39,4m1.12-.77-3,.4,1.56,2.27,1.45-2.67Z"/><path class="cls-1" d="M13,1.65l.07.81-.68-.28L13,1.65M13.48.39h0l-2.28,2,2.55,1-.26-3Z"/><path class="cls-1" d="M8.43,1.65,9,2.18l-.68.28.07-.81M7.93.39h0l-.26,3,2.55-1L7.93.39Z"/><path class="cls-1" d="M5.39,11.23l.42.61L5,11.95l.39-.72m-.06-1.18L3.88,12.72l3-.4L5.33,10.05Z"/><path class="cls-1" d="M16,11.23l.39.72-.81-.11.42-.61m.06-1.18-1.56,2.27,3,.4-1.45-2.67Z"/><path class="cls-1" d="M13,13.54l-.07.81-.62-.53.68-.28m.7-1-2.55,1,2.29,2,.26-3Z"/><path class="cls-1" d="M8.36,13.54l.68.28-.62.53-.07-.81m-.7-1,.26,3,2.29-2-2.55-1Z"/><path class="cls-2" d="M15.24,8a4.59,4.59,0,1,1-4.59-4.59A4.59,4.59,0,0,1,15.24,8"/><path class="cls-3" d="M2.13,14.44H2.06a.61.61,0,0,1-.54-.77.76.76,0,0,1,.3-.42L18.43,1.7a.69.69,0,0,1,1,.12h0a.69.69,0,0,1-.22.94L2.57,14.3A.76.76,0,0,1,2.13,14.44Z"/><rect class="cls-4" width="21" height="16"/></g></svg>