<svg xmlns="http://www.w3.org/2000/svg" viewBox="0 0 35 28"><defs><style>.cls-1{fill:#9db0bf;}.cls-2,.cls-4{fill:none;}.cls-2{stroke:#9db0bf;stroke-miterlimit:10;stroke-width:0.88px;}.cls-3{fill:#7f8f99;}</style></defs><title>_</title><g id="Layout"><path class="cls-1" d="M9.32,13.41v1.05l-1-.53,1-.53M10.2,12l-3.87,2,3.87,2V12Z"/><path class="cls-1" d="M26.25,13.41l1,.53-1,.53V13.41M25.37,12V15.9l3.87-2-3.87-2Z"/><path class="cls-1" d="M9.65,8.36l1.15.15-.6.87-.55-1M8,7.25l2.07,3.81,2.23-3.24L8,7.25Z"/><path class="cls-1" d="M25.92,8.36l-.55,1-.6-.87,1.15-.15m1.6-1.11-4.3.58,2.23,3.24,2.07-3.81Z"/><path class="cls-1" d="M21,4.93l.1,1.16-1-.4L21,4.93m.73-1.79h0L18.48,6l3.64,1.48-.37-4.31Z"/><path class="cls-1" d="M14.55,4.93l.88.76-1,.4.1-1.16m-.72-1.79h0l-.37,4.31L17.09,6,13.83,3.13Z"/><path class="cls-1" d="M10.2,18.62l.6.87-1.15.15.55-1m-.09-1.69L8,20.74l4.3-.58-2.23-3.24Z"/><path class="cls-1" d="M25.37,18.62l.55,1-1.15-.15.6-.87m.09-1.68-2.23,3.24,4.3.58-2.07-3.81Z"/><path class="cls-1" d="M21.12,21.91,21,23.07l-.88-.76,1-.4m1-1.36L18.48,22l3.28,2.84.37-4.32Z"/><path class="cls-1" d="M14.45,21.91l1,.4-.88.76-.1-1.16m-1-1.36.37,4.32L17.09,22l-3.64-1.48Z"/><path class="cls-2" d="M24.27,14a6.55,6.55,0,1,1-6.55-6.55A6.55,6.55,0,0,1,24.27,14"/><path class="cls-3" d="M5.41,23.3H5.32a.87.87,0,0,1-.78-1.12A1.1,1.1,0,0,1,5,21.57L29,4.9a1,1,0,0,1,1.38.17h0A1,1,0,0,1,30,6.43L6,23.1A1.1,1.1,0,0,1,5.41,23.3Z"/><rect class="cls-4" x="2.5" y="2.57" width="30" height="22.86"/></g></svg>